<?xml version="1.0" encoding="UTF-8" standalone="no"?>
<svg width="96px" height="25px" viewBox="0 0 96 25" version="1.1" xmlns="http://www.w3.org/2000/svg" xmlns:xlink="http://www.w3.org/1999/xlink">
    <!-- Generator: Sketch 41.2 (35397) - http://www.bohemiancoding.com/sketch -->
    <title>Todoer</title>
    <desc>Created with Sketch.</desc>
    <defs></defs>
    <g id="Page-1" stroke="none" stroke-width="1" fill="none" fill-rule="evenodd">
        <g id="todo" transform="translate(-250.000000, -20.000000)" fill="#FFFFFF">
            <g id="header">
                <g id="logo" transform="translate(250.000000, 20.000000)">
                    <path d="M11.656,6.578 L11.656,24 L6.355,24 L6.355,6.578 L0.155,6.578 L0.155,2.052 L17.856,2.052 L17.856,6.578 L11.656,6.578 Z M31.387,16.219 C31.387,17.479673 31.1596689,18.6214949 30.705,19.6445 C30.2503311,20.6675051 29.6303373,21.5354964 28.845,22.2485 C28.0596627,22.9615036 27.1503385,23.5143314 26.117,23.907 C25.0836615,24.2996686 23.9780059,24.496 22.8,24.496 C21.6426609,24.496 20.5421719,24.2996686 19.4985,23.907 C18.4548281,23.5143314 17.5455039,22.9615036 16.7705,22.2485 C15.9954961,21.5354964 15.3806689,20.6675051 14.926,19.6445 C14.4713311,18.6214949 14.244,17.479673 14.244,16.219 C14.244,14.958327 14.4713311,13.8216717 14.926,12.809 C15.3806689,11.7963283 15.9954961,10.9386702 16.7705,10.236 C17.5455039,9.53332982 18.4548281,8.99600186 19.4985,8.624 C20.5421719,8.25199814 21.6426609,8.066 22.8,8.066 C23.9780059,8.066 25.0836615,8.25199814 26.117,8.624 C27.1503385,8.99600186 28.0596627,9.53332982 28.845,10.236 C29.6303373,10.9386702 30.2503311,11.7963283 30.705,12.809 C31.1596689,13.8216717 31.387,14.958327 31.387,16.219 Z M26.489,16.219 C26.489,15.7229975 26.4063342,15.2373357 26.241,14.762 C26.0756658,14.2866643 25.8380015,13.8681685 25.528,13.5065 C25.2179984,13.1448315 24.8356689,12.8503345 24.381,12.623 C23.9263311,12.3956655 23.3993363,12.282 22.8,12.282 C22.2006637,12.282 21.6736689,12.3956655 21.219,12.623 C20.7643311,12.8503345 20.3871682,13.1448315 20.0875,13.5065 C19.7878318,13.8681685 19.5605008,14.2866643 19.4055,14.762 C19.2504992,15.2373357 19.173,15.7229975 19.173,16.219 C19.173,16.7150025 19.2504992,17.2006643 19.4055,17.676 C19.5605008,18.1513357 19.7929984,18.5801648 20.103,18.9625 C20.4130015,19.3448352 20.7953311,19.6496655 21.25,19.877 C21.7046689,20.1043345 22.2316637,20.218 22.831,20.218 C23.4303363,20.218 23.9573311,20.1043345 24.412,19.877 C24.8666689,19.6496655 25.2489984,19.3448352 25.559,18.9625 C25.8690015,18.5801648 26.1014992,18.1513357 26.2565,17.676 C26.4115008,17.2006643 26.489,16.7150025 26.489,16.219 Z M44.298,24 L44.298,21.985 L44.236,21.985 C43.7399975,22.7703373 43.0321713,23.3748312 42.1125,23.7985 C41.1928287,24.2221688 40.2163385,24.434 39.183,24.434 C38.0256609,24.434 36.9923379,24.2066689 36.083,23.752 C35.1736621,23.2973311 34.4038365,22.6928371 33.7735,21.9385 C33.1431635,21.1841629 32.6626683,20.311005 32.332,19.319 C32.0013317,18.326995 31.836,17.293672 31.836,16.219 C31.836,15.144328 32.0064983,14.1161716 32.3475,13.1345 C32.6885017,12.1528284 33.1741635,11.2900037 33.8045,10.546 C34.4348365,9.80199628 35.1994955,9.21300217 36.0985,8.779 C36.9975045,8.34499783 38.0049944,8.128 39.121,8.128 C40.2576724,8.128 41.2186627,8.34499783 42.004,8.779 C42.7893373,9.21300217 43.3989978,9.68833075 43.833,10.205 L43.895,10.205 L43.895,0.564 L48.979,0.564 L48.979,24 L44.298,24 Z M44.112,16.25 C44.112,15.7539975 44.0241675,15.2683357 43.8485,14.793 C43.6728325,14.3176643 43.4248349,13.8940019 43.1045,13.522 C42.7841651,13.1499981 42.3966689,12.8503345 41.942,12.623 C41.4873311,12.3956655 40.9706696,12.282 40.392,12.282 C39.7926637,12.282 39.2656689,12.3956655 38.811,12.623 C38.3563311,12.8503345 37.9740016,13.1448315 37.664,13.5065 C37.3539985,13.8681685 37.1215008,14.2866643 36.9665,14.762 C36.8114992,15.2373357 36.734,15.7229975 36.734,16.219 C36.734,16.7150025 36.8114992,17.2058309 36.9665,17.6915 C37.1215008,18.1771691 37.3539985,18.6059981 37.664,18.978 C37.9740016,19.3500019 38.3563311,19.6496655 38.811,19.877 C39.2656689,20.1043345 39.7926637,20.218 40.392,20.218 C40.9706696,20.218 41.4873311,20.1043345 41.942,19.877 C42.3966689,19.6496655 42.7841651,19.3500019 43.1045,18.978 C43.4248349,18.6059981 43.6728325,18.1823357 43.8485,17.707 C44.0241675,17.2316643 44.112,16.7460025 44.112,16.25 Z M67.377,16.219 C67.377,17.479673 67.1496689,18.6214949 66.695,19.6445 C66.2403311,20.6675051 65.6203373,21.5354964 64.835,22.2485 C64.0496627,22.9615036 63.1403385,23.5143314 62.107,23.907 C61.0736615,24.2996686 59.9680059,24.496 58.79,24.496 C57.6326609,24.496 56.5321719,24.2996686 55.4885,23.907 C54.4448281,23.5143314 53.5355039,22.9615036 52.7605,22.2485 C51.9854961,21.5354964 51.3706689,20.6675051 50.916,19.6445 C50.4613311,18.6214949 50.234,17.479673 50.234,16.219 C50.234,14.958327 50.4613311,13.8216717 50.916,12.809 C51.3706689,11.7963283 51.9854961,10.9386702 52.7605,10.236 C53.5355039,9.53332982 54.4448281,8.99600186 55.4885,8.624 C56.5321719,8.25199814 57.6326609,8.066 58.79,8.066 C59.9680059,8.066 61.0736615,8.25199814 62.107,8.624 C63.1403385,8.99600186 64.0496627,9.53332982 64.835,10.236 C65.6203373,10.9386702 66.2403311,11.7963283 66.695,12.809 C67.1496689,13.8216717 67.377,14.958327 67.377,16.219 Z M62.479,16.219 C62.479,15.7229975 62.3963342,15.2373357 62.231,14.762 C62.0656658,14.2866643 61.8280016,13.8681685 61.518,13.5065 C61.2079985,13.1448315 60.8256689,12.8503345 60.371,12.623 C59.9163311,12.3956655 59.3893363,12.282 58.79,12.282 C58.1906637,12.282 57.6636689,12.3956655 57.209,12.623 C56.7543311,12.8503345 56.3771682,13.1448315 56.0775,13.5065 C55.7778318,13.8681685 55.5505008,14.2866643 55.3955,14.762 C55.2404992,15.2373357 55.163,15.7229975 55.163,16.219 C55.163,16.7150025 55.2404992,17.2006643 55.3955,17.676 C55.5505008,18.1513357 55.7829985,18.5801648 56.093,18.9625 C56.4030016,19.3448352 56.7853311,19.6496655 57.24,19.877 C57.6946689,20.1043345 58.2216637,20.218 58.821,20.218 C59.4203363,20.218 59.9473311,20.1043345 60.402,19.877 C60.8566689,19.6496655 61.2389985,19.3448352 61.549,18.9625 C61.8590016,18.5801648 62.0914992,18.1513357 62.2465,17.676 C62.4015008,17.2006643 62.479,16.7150025 62.479,16.219 Z M79.234,14.514 C79.234,13.707996 78.9808359,13.0156696 78.4745,12.437 C77.9681641,11.8583304 77.2086717,11.569 76.196,11.569 C75.6999975,11.569 75.2453354,11.6464992 74.832,11.8015 C74.4186646,11.9565008 74.0570015,12.168332 73.747,12.437 C73.4369984,12.705668 73.1890009,13.0208315 73.003,13.3825 C72.8169991,13.7441685 72.7136668,14.1213314 72.693,14.514 L79.234,14.514 Z M83.915,16.467 L83.915,17.087 C83.915,17.2936677 83.9046668,17.4899991 83.884,17.676 L72.693,17.676 C72.7343335,18.1100022 72.8634989,18.5026649 73.0805,18.854 C73.2975011,19.2053351 73.5764983,19.5101654 73.9175,19.7685 C74.2585017,20.0268346 74.6408312,20.2283326 75.0645,20.373 C75.4881688,20.5176674 75.9273311,20.59 76.382,20.59 C77.188004,20.59 77.8699972,20.4401682 78.428,20.1405 C78.9860028,19.8408318 79.4406649,19.4533357 79.792,18.978 L83.326,21.21 C82.6026631,22.2640053 81.6468393,23.0751638 80.4585,23.6435 C79.2701607,24.2118362 77.8906745,24.496 76.32,24.496 C75.1626609,24.496 74.0673385,24.3151685 73.034,23.9535 C72.0006615,23.5918315 71.0965039,23.0648368 70.3215,22.3725 C69.5464961,21.6801632 68.9368356,20.8276717 68.4925,19.815 C68.0481644,18.8023283 67.826,17.6450065 67.826,16.343 C67.826,15.082327 68.0429978,13.9405051 68.477,12.9175 C68.9110022,11.8944949 69.4999963,11.0265036 70.244,10.3135 C70.9880037,9.60049643 71.8663283,9.04766863 72.879,8.655 C73.8916717,8.26233137 74.9869941,8.066 76.165,8.066 C77.3016724,8.066 78.3453286,8.25716475 79.296,8.6395 C80.2466714,9.02183524 81.0629966,9.57466305 81.745,10.298 C82.4270034,11.021337 82.9591648,11.8996615 83.3415,12.933 C83.7238352,13.9663385 83.915,15.1443267 83.915,16.467 Z M95.09,12.716 C94.8626655,12.6539997 94.6405011,12.6126668 94.4235,12.592 C94.2064989,12.5713332 93.9946677,12.561 93.788,12.561 C93.1059966,12.561 92.5325023,12.6849988 92.0675,12.933 C91.6024977,13.1810012 91.2305014,13.4806649 90.9515,13.832 C90.6724986,14.1833351 90.4710006,14.5656646 90.347,14.979 C90.2229994,15.3923354 90.161,15.7539984 90.161,16.064 L90.161,24 L85.077,24 L85.077,8.562 L89.975,8.562 L89.975,10.794 L90.037,10.794 C90.4296686,10.0086627 90.987663,9.36800248 91.711,8.872 C92.434337,8.37599752 93.2713286,8.128 94.222,8.128 C94.4286677,8.128 94.6301657,8.13833323 94.8265,8.159 C95.0228343,8.17966677 95.1829994,8.21066646 95.307,8.252 L95.09,12.716 Z" id="Todoer"></path>
                </g>
            </g>
        </g>
    </g>
</svg>